# xmcd
#
# Track frame offsets: 
#        187
#        14175
#        26872
#        40522
#        53492
#        66005
#        78750
#        90622
#        101507
#        115855
#        128635
#        139817
#        152275
#        161130
#        175065
#        186387
#        198532
#        210140
#        223625
#        232810
#        243270
#        254402
#        267417
#        282277
#        291830
#        305097
#        318350
#        330465
#
# Disc length: 4615 seconds
#
# Revision: 4
# Processed by: cddbd v1.5.2PL0 Copyright (c) Steve Scherf et al.
# Submitted via: ExactAudioCopy v1.3
#
DISCID=8712051c
DTITLE=Various Artist - PRCD 7090 R&B Box Sampler
DYEAR=1994
DGENRE=R&B
TTITLE0=Louis Jordan And His Tympany Five - Five Guys Named Moe
TTITLE1=Amos Milburn - Chicken Shack Boogie
TTITLE2=Dinah Washington - Baby Get Lost
TTITLE3=Percy Mayfield And Orchestra - Please Send Me Someone To Love
TTITLE4=Jackie Brenston With His Delta Cats - Rocket 88
TTITLE5=Willie Mae Big Mama Thornton - Hound Dog
TTITLE6=Joe Turner And His Band - Honey Hush
TTITLE7=Chords - Sh-Boom
TTITLE8=Moonglows - Sincerely
TTITLE9=Ray Charles - I've Got A Woman
TTITLE10=Johnny Ace - Pledging My Love
TTITLE11=James Brown - Please Please Please
TTITLE12=Fats Domino - I'm In Love Again
TTITLE13=Jesse Belvin - Goodnight My Love (Pleasant Dreams)
TTITLE14=Little Richard And His Band - The Girl Can't Help It
TTITLE15=Jackie Wilson - Reet Petite (The Finest Girl You Ever Want To
TTITLE15=Meet)
TTITLE16=Clyde McPhatter - A Lover's Question
TTITLE17=Etta James - At Last
TTITLE18=Gladys Knight And The Pips - Every Beat Of My Heart
TTITLE19=Impressions - Gypsy Woman
TTITLE20=Mary Wells - The One Who Really Loves You
TTITLE21=Booker T. And The MGs - Green Onions
TTITLE22=Esther Phillips - Release Me
TTITLE23=Marvin Gaye - Pride And Joy
TTITLE24=Wilson Pickett - 634-5789
TTITLE25=Percy Sledge - When A Man Loves A Woman
TTITLE26=Aaron Neville - Tell It Like It Is
TTITLE27=Ike And Tina Turner - Proud Mary
EXTD=
EXTT0=
EXTT1=
EXTT2=
EXTT3=
EXTT4=
EXTT5=
EXTT6=
EXTT7=
EXTT8=
EXTT9=
EXTT10=
EXTT11=
EXTT12=
EXTT13=
EXTT14=
EXTT15=
EXTT16=
EXTT17=
EXTT18=
EXTT19=
EXTT20=
EXTT21=
EXTT22=
EXTT23=
EXTT24=
EXTT25=
EXTT26=
EXTT27=
PLAYORDER=
